<svg width="97" height="96" viewBox="0 0 97 96" fill="none" xmlns="http://www.w3.org/2000/svg">
<path d="M42.224 9.90935H52.7851C53.319 9.88293 53.8223 9.65221 54.1908 9.265C54.5593 8.8778 54.7648 8.36377 54.7648 7.82924C54.7648 7.2947 54.5593 6.78061 54.1908 6.3934C53.8223 6.0062 53.319 5.77548 52.7851 5.74905H42.224C41.6901 5.77548 41.1868 6.0062 40.8183 6.3934C40.4498 6.78061 40.2443 7.2947 40.2443 7.82924C40.2443 8.36377 40.4498 8.8778 40.8183 9.265C41.1868 9.65221 41.6901 9.88293 42.224 9.90935Z" fill="#DC3635"/>
<path d="M86.2099 29.8908H94.2097C94.7578 29.8817 95.281 29.6598 95.6686 29.2722C96.0563 28.8845 96.2781 28.3614 96.2873 27.8133V19.8186C96.2781 19.2699 96.0565 18.7463 95.6689 18.3578C95.2814 17.9693 94.7583 17.7464 94.2097 17.7359H86.2099C85.6617 17.7476 85.1393 17.971 84.7521 18.3592C84.3648 18.7474 84.1427 19.2703 84.1323 19.8186V21.8962H80.135V8.14742C80.1216 5.99071 79.259 3.9261 77.7339 2.40105C76.2089 0.875998 74.1443 0.0133546 71.9876 0H24.3099C22.1528 0.0120326 20.0874 0.874283 18.5621 2.39962C17.0367 3.92496 16.1745 5.9903 16.1625 8.14742V21.8962H12.16V19.8186C12.1509 19.2699 11.9292 18.7463 11.5417 18.3578C11.1542 17.9693 10.631 17.7464 10.0824 17.7359H2.07759C1.52898 17.7464 1.00584 17.9693 0.61832 18.3578C0.230798 18.7463 0.00913309 19.2699 0 19.8186V27.8133C0.00917048 28.3614 0.231008 28.8845 0.618662 29.2722C1.00632 29.6598 1.52944 29.8817 2.07759 29.8908H10.0773C10.6255 29.8817 11.1486 29.6598 11.5363 29.2722C11.9239 28.8845 12.1458 28.3614 12.1549 27.8133V25.7356H16.1574V67.8018H12.1549V65.7191C12.1445 65.1714 11.9223 64.649 11.5349 64.2616C11.1475 63.8742 10.6251 63.652 10.0773 63.6415H2.07759C1.52985 63.652 1.00745 63.8742 0.620061 64.2616C0.232676 64.649 0.0104361 65.1714 0 65.7191V73.7188C0.00917048 74.267 0.231008 74.7901 0.618662 75.1778C1.00632 75.5655 1.52944 75.7873 2.07759 75.7965H10.0773C10.6255 75.7873 11.1486 75.5655 11.5363 75.1778C11.9239 74.7901 12.1458 74.267 12.1549 73.7188V71.6464H16.1574V87.4778C16.1681 89.6353 17.0299 91.7015 18.5555 93.2271C20.0811 94.7527 22.1472 95.6145 24.3048 95.6252H71.9723C74.1294 95.6132 76.1948 94.751 77.7201 93.2256C79.2454 91.7003 80.1077 89.6349 80.1197 87.4778V71.6464H84.1171V73.7239C84.1275 74.2717 84.3497 74.7941 84.7371 75.1815C85.1245 75.5689 85.6469 75.7911 86.1946 75.8016H94.1944C94.7425 75.7924 95.2657 75.5706 95.6533 75.1829C96.041 74.7952 96.2628 74.2721 96.272 73.7239V65.7242C96.2616 65.1765 96.0393 64.6541 95.6519 64.2667C95.2645 63.8793 94.7421 63.6571 94.1944 63.6466H86.2099C85.6622 63.6571 85.1398 63.8793 84.7524 64.2667C84.365 64.6541 84.1428 65.1765 84.1323 65.7242V67.8069H80.135V25.8986H84.1323V27.8184C84.1441 28.3652 84.3669 28.8863 84.7541 29.2726C85.1414 29.6589 85.663 29.8804 86.2099 29.8908ZM8.15761 25.8935H4.16028V21.8962H8.15761V25.8935ZM8.15761 71.7992H4.16028V67.8018H8.15761V71.7992ZM88.1296 67.8018H92.1321V71.7992H88.1296V67.8018ZM20.1547 7.99463C20.1743 6.89825 20.6182 5.85214 21.3931 5.07629C22.168 4.30043 23.2135 3.85525 24.3099 3.83433H71.9774C73.0746 3.85394 74.1215 4.29855 74.8975 5.07455C75.6734 5.85054 76.1181 6.89739 76.1377 7.99463V21.7434H72.1353V15.6685C72.1261 15.1198 71.9045 14.5962 71.5169 14.2077C71.1294 13.8192 70.6063 13.5963 70.0577 13.5858H26.2296C25.6814 13.5975 25.159 13.8209 24.7717 14.2091C24.3845 14.5973 24.1624 15.1202 24.152 15.6685V21.7434H20.1547V7.99463ZM64.1406 25.9088H68.1379V67.8171H64.1406C63.5896 67.8171 63.0611 68.036 62.6715 68.4256C62.2819 68.8152 62.063 69.3437 62.063 69.8947C62.063 70.4457 62.2819 70.9741 62.6715 71.3637C63.0611 71.7534 63.5896 71.9723 64.1406 71.9723H68.1379V75.8118H28.1494V71.8144H32.1518C32.6995 71.804 33.2219 71.5817 33.6093 71.1944C33.9967 70.807 34.2189 70.2846 34.2294 69.7368C34.2209 69.4737 34.1602 69.215 34.0508 68.9755C33.9414 68.7361 33.7855 68.5209 33.5922 68.3423C33.3989 68.1636 33.172 68.0252 32.9247 67.9351C32.6774 67.8449 32.4147 67.8048 32.1518 67.8171H28.1494V25.9088H32.1518C32.6857 25.8824 33.1889 25.6517 33.5575 25.2645C33.926 24.8773 34.1315 24.3632 34.1315 23.8286C34.1315 23.2941 33.926 22.78 33.5575 22.3928C33.1889 22.0056 32.6857 21.7749 32.1518 21.7485H28.1494V17.7512H68.1379V21.7434H64.1406C63.5915 21.7538 63.0678 21.9766 62.6795 22.3649C62.2911 22.7533 62.0683 23.277 62.0579 23.8261C62.2209 24.9463 63.0203 25.9037 64.1406 25.9037V25.9088ZM20.1547 25.9088H24.1673V67.8171H20.17L20.1547 25.9088ZM76.1377 87.651C76.118 88.7478 75.6732 89.794 74.8971 90.5692C74.121 91.3443 73.0742 91.7878 71.9774 91.8061H24.3099C23.214 91.7865 22.1684 91.3425 21.3934 90.5674C20.6184 89.7924 20.1743 88.7469 20.1547 87.651V71.8144H24.1673V77.8944C24.1777 78.4422 24.4 78.9646 24.7874 79.352C25.1747 79.7393 25.6971 79.9616 26.2449 79.972H70.2308C70.7794 79.9629 71.3031 79.7412 71.6916 79.3537C72.08 78.9662 72.303 78.443 72.3135 77.8944V71.8144H76.1529L76.1377 87.651ZM76.1377 67.7916H72.1353V25.8833H76.1377V67.7916ZM88.1296 21.886H92.1321V25.8833H88.1296V21.886Z" fill="#DC3635"/>
<path d="M48.1461 23.8262C44.5867 23.8413 41.1118 24.9117 38.1607 26.9019C35.2097 28.892 32.9151 31.7126 31.5672 35.0069C30.2193 38.3013 29.8786 41.9213 30.5882 45.4092C31.2978 48.8972 33.0258 52.0964 35.5537 54.6022C38.0816 57.108 41.2958 58.8079 44.7899 59.4868C48.2839 60.1658 51.9009 59.7934 55.1832 58.4166C58.4656 57.0399 61.2659 54.7206 63.2301 51.7523C65.1943 48.7839 66.2341 45.2997 66.2181 41.7404C66.1817 36.9731 64.2611 32.4137 60.8753 29.0575C57.4895 25.7013 52.9134 23.8207 48.1461 23.8262ZM48.1461 55.815C45.3609 55.816 42.638 54.991 40.3218 53.4443C38.0057 51.8975 36.2002 49.6987 35.1339 47.1257C34.0676 44.5528 33.7884 41.7213 34.3315 38.9897C34.8746 36.258 36.2157 33.7488 38.1851 31.7794C40.1545 29.81 42.6637 28.4689 45.3954 27.9258C48.1271 27.3826 50.9585 27.6619 53.5314 28.7282C56.1044 29.7945 58.3033 31.5999 59.85 33.9161C61.3967 36.2323 62.2217 38.9552 62.2207 41.7404C62.2153 45.4715 60.7307 49.0483 58.0924 51.6867C55.4541 54.325 51.8772 55.8096 48.1461 55.815Z" fill="#DC3635"/>
<path d="M53.7424 36.4597C53.553 36.6489 53.4028 36.8735 53.3003 37.1208C53.1978 37.368 53.145 37.6331 53.145 37.9008C53.145 38.1684 53.1978 38.4335 53.3003 38.6807C53.4028 38.928 53.553 39.1527 53.7424 39.3419L55.3413 40.9407L53.7424 42.5397C53.3615 42.9215 53.1476 43.4389 53.1476 43.9783C53.1476 44.5176 53.3615 45.0349 53.7424 45.4168C54.1362 45.7877 54.6443 46.0139 55.1835 46.0584C55.4542 46.0567 55.7216 45.9987 55.9688 45.8883C56.216 45.7779 56.4376 45.6173 56.6195 45.4168L59.6747 42.3615C60.0557 41.9796 60.2696 41.4623 60.2696 40.923C60.2696 40.3836 60.0557 39.8662 59.6747 39.4844L56.6195 36.4291C56.2336 36.0522 55.714 35.8438 55.1746 35.8495C54.6353 35.8553 54.1202 36.0747 53.7424 36.4597Z" fill="#DC3635"/>
<path d="M42.5448 36.4597C42.163 36.0788 41.6457 35.8648 41.1063 35.8648C40.5669 35.8648 40.0496 36.0788 39.6678 36.4597L36.6125 39.515C36.2316 39.8968 36.0176 40.4141 36.0176 40.9535C36.0176 41.4928 36.2316 42.0102 36.6125 42.392L39.6678 45.4473C40.0609 45.8193 40.5694 46.0457 41.1088 46.0889C41.3796 46.0872 41.647 46.0293 41.8942 45.9189C42.1414 45.8084 42.3629 45.6478 42.5448 45.4473C42.9257 45.0655 43.1397 44.5481 43.1397 44.0087C43.1397 43.4694 42.9257 42.9521 42.5448 42.5702L40.9713 40.9407L42.5703 39.3418C43.3443 38.3794 43.3443 37.2591 42.5448 36.4597Z" fill="#DC3635"/>
<path d="M50.7023 31.8207C50.4502 31.7351 50.1824 31.7055 49.9176 31.734C49.6528 31.7624 49.3974 31.8482 49.1691 31.9853C48.9408 32.1225 48.7452 32.3077 48.5958 32.5282C48.4464 32.7486 48.3468 32.9989 48.3039 33.2618L44.1437 47.3365C44.0581 47.5886 44.0285 47.8564 44.0569 48.1212C44.0853 48.386 44.1711 48.6414 44.3083 48.8697C44.4454 49.098 44.6307 49.2936 44.8511 49.443C45.0716 49.5924 45.3219 49.692 45.5847 49.7348H46.0634C46.4866 49.7019 46.8916 49.5495 47.2315 49.2952C47.5714 49.041 47.832 48.6955 47.9831 48.2989L51.9805 34.2191C52.0631 33.978 52.0953 33.7225 52.0751 33.4684C52.0548 33.2143 51.9824 32.9671 51.8626 32.7422C51.7427 32.5172 51.5778 32.3193 51.3783 32.1608C51.1787 32.0023 50.9486 31.8866 50.7023 31.8207Z" fill="#DC3635"/>
<path d="M54.2107 63.8145C53.6626 63.8237 53.1394 64.0456 52.7518 64.4332C52.3641 64.8209 52.1423 65.344 52.1331 65.8921V67.8119C52.1595 68.3457 52.3902 68.849 52.7774 69.2175C53.1646 69.5861 53.6787 69.7916 54.2133 69.7916C54.7478 69.7916 55.2619 69.5861 55.6491 69.2175C56.0363 68.849 56.267 68.3457 56.2934 67.8119V65.7292C56.1978 65.2288 55.9436 64.7724 55.5686 64.4276C55.1935 64.0828 54.7174 63.8678 54.2107 63.8145Z" fill="#DC3635"/>
<path d="M48.1462 63.8145C47.5976 63.8237 47.0739 64.0453 46.6854 64.4328C46.297 64.8204 46.074 65.3435 46.0635 65.8921V67.8119C46.09 68.3457 46.3207 68.849 46.7079 69.2175C47.0951 69.5861 47.6091 69.7916 48.1437 69.7916C48.6782 69.7916 49.1923 69.5861 49.5795 69.2175C49.9667 68.849 50.1974 68.3457 50.2238 67.8119V65.7292C50.1804 65.2078 49.9428 64.7217 49.5581 64.3671C49.1733 64.0125 48.6694 63.8153 48.1462 63.8145Z" fill="#DC3635"/>
<path d="M42.224 63.8145C41.6763 63.825 41.1539 64.0472 40.7665 64.4346C40.3791 64.822 40.1569 65.3444 40.1464 65.8921V67.8119C40.1728 68.3457 40.4035 68.849 40.7907 69.2175C41.1779 69.5861 41.692 69.7916 42.2266 69.7916C42.7611 69.7916 43.2752 69.5861 43.6624 69.2175C44.0496 68.849 44.2803 68.3457 44.3067 67.8119V65.7292C44.2111 65.2288 43.957 64.7724 43.5819 64.4276C43.2068 64.0828 42.7307 63.8678 42.224 63.8145Z" fill="#DC3635"/>
<path d="M48.1462 81.5659C48.8743 81.5659 49.5861 81.7818 50.1916 82.1863C50.797 82.5909 51.2689 83.1659 51.5475 83.8386C51.8262 84.5113 51.8991 85.2516 51.757 85.9657C51.615 86.6799 51.2643 87.3359 50.7495 87.8508C50.2346 88.3657 49.5786 88.7163 48.8644 88.8583C48.1502 89.0004 47.41 88.9275 46.7373 88.6489C46.0645 88.3702 45.4895 87.8983 45.085 87.2929C44.6805 86.6875 44.4645 85.9756 44.4645 85.2475C44.4645 84.764 44.5598 84.2853 44.7448 83.8386C44.9298 83.3919 45.201 82.9861 45.5429 82.6442C45.8847 82.3023 46.2906 82.0312 46.7373 81.8461C47.1839 81.6611 47.6627 81.5659 48.1462 81.5659Z" fill="#DC3635"/>
</svg>
