<svg width="92" height="88" viewBox="0 0 92 88" fill="none" xmlns="http://www.w3.org/2000/svg">
<path d="M68.7439 83.8624H60.627L56.1714 68.7439H83.0681C84.8367 68.7332 86.5297 68.0259 87.7803 66.7753C89.031 65.5247 89.7383 63.8316 89.749 62.063V6.68088C89.7383 4.9123 89.031 3.2192 87.7803 1.9686C86.5297 0.717996 84.8367 0.0106866 83.0681 0H6.68598C4.91692 0.0106728 3.22331 0.717819 1.9719 1.96828C0.720486 3.21874 0.0120207 4.91184 0 6.68088V62.063C0.0120207 63.832 0.720486 65.5252 1.9719 66.7756C3.22331 68.0261 4.91692 68.7332 6.68598 68.7439H31.668L27.2124 83.8624H19.0955C16.5495 83.8624 16.5495 87.8394 19.0955 87.8394H68.7439C71.2899 87.8394 71.2899 83.8624 68.7439 83.8624ZM6.68598 3.97696H83.0681C83.7783 3.99867 84.4535 4.29052 84.956 4.79297C85.4584 5.29543 85.7503 5.97064 85.772 6.68088V14.3191H3.97699V6.68088C3.97427 6.32461 4.04246 5.97137 4.1777 5.64175C4.31295 5.31213 4.51251 5.01275 4.76468 4.76105C5.01685 4.50936 5.31661 4.3104 5.64648 4.17578C5.97635 4.04116 6.32971 3.97357 6.68598 3.97696ZM3.97699 62.063V56.0135H15.2764C17.8225 56.0135 17.8225 52.0366 15.2764 52.0366H3.97699V18.3011H85.9298V52.1944H23.872C21.3259 52.1944 21.3259 56.1714 23.872 56.1714H85.9298V62.2209C85.9093 62.9315 85.6179 63.6074 85.1152 64.1101C84.6125 64.6128 83.9366 64.9043 83.226 64.9248H6.68598C5.9597 64.8693 5.28003 64.5456 4.77929 64.0166C4.27854 63.4876 3.99258 62.7912 3.97699 62.063ZM31.3523 83.8624L35.8029 68.7439H51.8787L56.3343 83.8624H31.3523Z" fill="#DC3635"/>
<path d="M21.7995 79.8855C21.7903 79.3396 21.5697 78.8185 21.1841 78.4319C20.7985 78.0454 20.2779 77.8235 19.732 77.813H1.90955C-0.636517 77.813 -0.636517 81.7951 1.90955 81.7951H19.895C21.005 81.9529 21.7995 80.9956 21.7995 79.8855Z" fill="#DC3635"/>
<path d="M1.90955 75.9034H9.86857C12.4146 75.9034 12.4146 71.9265 9.86857 71.9265H1.90955C-0.636517 71.9265 -0.636517 75.9034 1.90955 75.9034Z" fill="#DC3635"/>
<path d="M89.4332 77.9759H71.6107C69.0647 77.9759 69.0647 81.9529 71.6107 81.9529H89.4332C91.9793 81.9529 91.9793 77.9759 89.4332 77.9759Z" fill="#DC3635"/>
<path d="M81.4742 71.9265C78.9282 71.9265 78.9282 75.9034 81.4742 75.9034H89.4333C91.9793 75.9034 91.9793 71.9265 89.4333 71.9265H81.4742Z" fill="#DC3635"/>
<path d="M79.5647 46.1399C79.5556 45.594 79.335 45.0729 78.9494 44.6864C78.5638 44.2998 78.0432 44.0779 77.4973 44.0674H11.936C9.38997 44.0674 9.38997 48.0495 11.936 48.0495H77.4973C77.7589 48.0618 78.0203 48.0219 78.2664 47.9323C78.5124 47.8427 78.7382 47.705 78.9306 47.5273C79.1229 47.3496 79.2781 47.1355 79.3869 46.8973C79.4958 46.6591 79.5562 46.4017 79.5647 46.1399Z" fill="#DC3635"/>
<path d="M19.8951 42.168H69.5434C72.0895 42.168 72.0895 38.191 69.5434 38.191H19.8951C17.3439 38.191 17.3439 42.168 19.8951 42.168Z" fill="#DC3635"/>
<path d="M51.7206 12.2517H79.5644C82.1105 12.2517 82.1105 8.27475 79.5644 8.27475H51.7206C49.1745 8.27475 49.1745 12.2517 51.7206 12.2517Z" fill="#DC3635"/>
<path d="M27.6911 34.2142L29.4376 26.2552H29.6006L31.5102 34.2142H34.2141L37.2337 22.2782H35.0085L33.2568 29.7585L33.0989 30.2321L31.0315 22.2782H28.4854L26.5759 30.2321L26.418 29.5956L24.6663 22.2782H21.7994L24.8242 34.2142H27.6911Z" fill="#DC3635"/>
<path d="M43.2833 34.2142L45.1929 26.2552L47.1024 34.2142H49.9693L52.8311 22.2782H50.6007L48.8541 29.7585L48.6912 30.2321L46.7816 22.2782H44.0777L42.1681 30.2321L42.0103 29.5956L40.4165 22.2782H37.5547L40.5794 34.2142H43.2833Z" fill="#DC3635"/>
<path d="M59.0381 34.2142L60.7898 26.2552H60.9476L62.8572 34.2142H65.5612L68.5859 22.2782H66.1977L64.4459 29.7585V30.2321L62.3786 22.2782H59.8325L57.9229 30.2321H57.7651V29.5956L56.0134 22.2782H53.1516L56.1712 34.2142H59.0381Z" fill="#DC3635"/>
<path d="M43.9197 62.2208C46.6288 62.2208 46.6288 58.0809 43.9197 58.0809C41.2107 58.0809 41.2158 62.2208 43.9197 62.2208Z" fill="#DC3635"/>
<path d="M11.9308 8.27475H7.95386V12.2517H11.9308V8.27475Z" fill="#DC3635"/>
<path d="M17.8226 8.27475H13.8456V12.2517H17.8226V8.27475Z" fill="#DC3635"/>
<path d="M23.867 8.27475H19.89V12.2517H23.867V8.27475Z" fill="#DC3635"/>
</svg>
