<svg width="99" height="92" viewBox="0 0 99 92" fill="none" xmlns="http://www.w3.org/2000/svg">
<path d="M34.0247 28.1494C34.0351 28.6976 34.2571 29.2205 34.6444 29.6088C35.0316 29.997 35.5541 30.2203 36.1023 30.232H39.6209L34.1825 53.7424C34.0771 54.2276 34.1344 54.7341 34.3455 55.1835L47.142 77.2529C47.3308 77.5483 47.5909 77.7914 47.8984 77.9598C48.2059 78.1283 48.5508 78.2166 48.9014 78.2166C49.2519 78.2166 49.5969 78.1283 49.9044 77.9598C50.2118 77.7914 50.4719 77.5483 50.6607 77.2529L63.9359 55.1835C64.0795 54.9752 64.1691 54.7344 64.1967 54.4829C64.2242 54.2314 64.1888 53.9769 64.0938 53.7424L58.6554 30.3899H62.174C62.7223 30.3795 63.2452 30.1574 63.6334 29.7702C64.0216 29.3829 64.245 28.8605 64.2567 28.3123V20.3126C64.2462 19.7639 64.0233 19.2408 63.6348 18.8533C63.2463 18.4658 62.7227 18.2441 62.174 18.2349H60.0964V2.0776C60.0873 1.52945 59.8654 1.0063 59.4778 0.618646C59.0901 0.230992 58.567 0.00917048 58.0188 0H40.1047C39.5561 0.00913309 39.0324 0.230814 38.6439 0.618336C38.2554 1.00586 38.0325 1.52899 38.022 2.0776V18.072H35.9444C35.3958 18.0825 34.8727 18.3054 34.4851 18.6939C34.0976 19.0824 33.876 19.6061 33.8668 20.1547V28.1494H34.0247ZM48.8988 49.7451C47.4628 49.7451 47.4628 47.3467 48.8988 47.3467C50.3348 47.3467 50.3399 49.7451 48.8988 49.7451ZM59.9386 53.7424L51.1394 68.6166V53.2638C56.0991 51.0233 54.3372 43.3443 49.0618 43.3443C43.4604 43.3443 42.0244 51.3441 47.142 53.4216V69.1003L38.3224 53.885L43.7608 30.2117H54.6377L59.9386 53.7424ZM42.0244 4.16027H44.102V12.1549C44.102 14.701 48.0994 14.701 48.0994 12.1549V4.16027H56.0991V18.072H42.1823V4.16027H42.0244ZM38.022 22.0744H60.0964V26.0718H38.2002V22.0744H38.022Z" fill="#DC3635"/>
<path d="M97.5237 40.4673C97.9046 40.0854 98.1186 39.5681 98.1186 39.0288C98.1186 38.4894 97.9046 37.9721 97.5237 37.5902L90.4864 30.5529C90.1045 30.172 89.5872 29.958 89.0478 29.958C88.5085 29.958 87.9912 30.172 87.6093 30.5529L80.5872 37.5902C80.2063 37.9721 79.9924 38.4894 79.9924 39.0288C79.9924 39.5681 80.2063 40.0854 80.5872 40.4673L86.3261 46.2469L53.2272 84.1527H45.0798L11.7924 46.2469L17.5517 40.4876C17.9326 40.1058 18.1465 39.5885 18.1465 39.0491C18.1465 38.5098 17.9326 37.9924 17.5517 37.6106L10.5143 30.5732C10.3252 30.3839 10.1005 30.2336 9.85325 30.1311C9.60598 30.0286 9.34092 29.9759 9.07325 29.9759C8.80557 29.9759 8.54053 30.0286 8.29326 30.1311C8.04599 30.2336 7.82134 30.3839 7.63217 30.5732L0.594839 37.5902C0.213921 37.9721 0 38.4894 0 39.0288C0 39.5681 0.213921 40.0854 0.594839 40.4673L39.621 83.9745H15.6319C13.3914 77.7367 3.95565 79.4934 3.95565 86.0521C3.95565 92.6108 13.3914 94.1995 15.6319 88.1297H82.339C84.5795 94.3676 94.0152 92.6108 94.0152 86.0521C94.0152 79.4934 84.5795 77.9047 82.339 83.9745H58.3397L97.5237 40.4673ZM89.0453 34.8659L93.3685 39.1841L89.0453 43.5022L84.7272 39.1841L89.0453 34.8659ZM9.09871 34.8659L13.4168 39.1841L9.09871 43.5022L4.78058 39.1841L9.09871 34.8659ZM10.056 88.1246C7.50997 88.1246 7.50997 84.1273 10.056 84.1273C12.6021 84.1273 12.5919 88.1297 10.0306 88.1297L10.056 88.1246ZM88.1134 84.1273C90.6595 84.1273 90.6595 88.1246 88.1134 88.1246C85.5674 88.1246 85.5266 84.1324 88.088 84.1324L88.1134 84.1273Z" fill="#DC3635"/>
<path d="M68.0911 8.15765H64.0938V12.155H68.0911V8.15765Z" fill="#DC3635"/>
<path d="M74.0082 8.15765H70.0109V12.155H74.0082V8.15765Z" fill="#DC3635"/>
<path d="M80.0883 8.15765H76.0909V12.155H80.0883V8.15765Z" fill="#DC3635"/>
<path d="M22.0276 8.15765H18.0303V12.155H22.0276V8.15765Z" fill="#DC3635"/>
<path d="M28.1026 8.15765H24.1052V12.155H28.1026V8.15765Z" fill="#DC3635"/>
<path d="M34.0248 8.15765H30.0275V12.155H34.0248V8.15765Z" fill="#DC3635"/>
</svg>
