<svg width="131" height="27" viewBox="0 0 131 27" fill="none" xmlns="http://www.w3.org/2000/svg">
<path d="M13.359 0.283569L16.2896 9.30304H25.7732L18.1008 14.8774L21.0314 23.8969L13.359 18.3225L5.68659 23.8969L8.61719 14.8774L0.944773 9.30304H10.4284L13.359 0.283569Z" fill="#FEF4E6"/>
<path d="M39.4653 0.283569L42.3959 9.30304H51.8796L44.2071 14.8774L47.1378 23.8969L39.4653 18.3225L31.7929 23.8969L34.7235 14.8774L27.0511 9.30304H36.5347L39.4653 0.283569Z" fill="#FEF4E6"/>
<path d="M65.5715 0.283569L68.5021 9.30304H77.9858L70.3134 14.8774L73.244 23.8969L65.5715 18.3225L57.8991 23.8969L60.8297 14.8774L53.1573 9.30304H62.6409L65.5715 0.283569Z" fill="#FEF4E6"/>
<path d="M91.6777 0.283569L94.6083 9.30304H104.092L96.4196 14.8774L99.3502 23.8969L91.6777 18.3225L84.0053 23.8969L86.9359 14.8774L79.2635 9.30304H88.7471L91.6777 0.283569Z" fill="#FEF4E6"/>
<path d="M117.784 0.283569L120.715 9.30304H130.198L122.526 14.8774L125.456 23.8969L117.784 18.3225L110.112 23.8969L113.042 14.8774L105.37 9.30304H114.853L117.784 0.283569Z" fill="#FEF4E6"/>
</svg>
