<svg width="172" height="31" viewBox="0 0 172 31" fill="none" xmlns="http://www.w3.org/2000/svg">
<path d="M0.8 30V2H13.6C16.16 2 18.36 2.41333 20.2 3.24C22.0667 4.06667 23.5067 5.26667 24.52 6.84C25.5333 8.38667 26.04 10.2267 26.04 12.36C26.04 14.4667 25.5333 16.2933 24.52 17.84C23.5067 19.36 22.0667 20.5333 20.2 21.36C18.36 22.16 16.16 22.56 13.6 22.56H5.2L8.72 19.24V30H0.8ZM18.12 30L11.16 19.8H19.6L26.6 30H18.12ZM8.72 20.08L5.2 16.44H13.12C14.7733 16.44 16 16.08 16.8 15.36C17.6267 14.64 18.04 13.64 18.04 12.36C18.04 11.0533 17.6267 10.04 16.8 9.32C16 8.6 14.7733 8.24 13.12 8.24H5.2L8.72 4.6V20.08Z" fill="#DC3635"/>
<path d="M44.9294 30V25.36L44.8094 24.6V16.84C44.8094 15.0533 44.3027 13.68 43.2894 12.72C42.3027 11.76 40.8227 11.28 38.8494 11.28C37.4894 11.28 36.196 11.5067 34.9694 11.96C33.7427 12.4133 32.7027 13.0133 31.8494 13.76L30.5694 11.64C31.636 10.7333 32.916 10.04 34.4094 9.56C35.9027 9.05333 37.476 8.8 39.1294 8.8C41.8494 8.8 43.9427 9.48 45.4094 10.84C46.9027 12.1733 47.6494 14.2133 47.6494 16.96V30H44.9294ZM37.6894 30.2C36.116 30.2 34.7427 29.9467 33.5694 29.44C32.4227 28.9067 31.5427 28.1867 30.9294 27.28C30.316 26.3467 30.0094 25.28 30.0094 24.08C30.0094 22.9867 30.2627 22 30.7694 21.12C31.3027 20.2133 32.156 19.4933 33.3294 18.96C34.5294 18.4 36.1294 18.12 38.1294 18.12H45.3694V20.24H38.2094C36.1827 20.24 34.7694 20.6 33.9694 21.32C33.196 22.04 32.8094 22.9333 32.8094 24C32.8094 25.2 33.276 26.16 34.2094 26.88C35.1427 27.6 36.4494 27.96 38.1294 27.96C39.7294 27.96 41.1027 27.6 42.2494 26.88C43.4227 26.1333 44.276 25.0667 44.8094 23.68L45.4494 25.64C44.916 27.0267 43.9827 28.1333 42.6494 28.96C41.3427 29.7867 39.6894 30.2 37.6894 30.2ZM81.8031 8.8C83.5098 8.8 84.9898 9.13333 86.2431 9.8C87.5231 10.44 88.5098 11.4267 89.2031 12.76C89.9231 14.0933 90.2831 15.7733 90.2831 17.8V30H87.4431V18.08C87.4431 15.8667 86.9098 14.2 85.8431 13.08C84.8031 11.9333 83.3231 11.36 81.4031 11.36C79.9631 11.36 78.7098 11.6667 77.6431 12.28C76.6031 12.8667 75.7898 13.7333 75.2031 14.88C74.6431 16 74.3631 17.36 74.3631 18.96V30H71.5231V18.08C71.5231 15.8667 70.9898 14.2 69.9231 13.08C68.8565 11.9333 67.3631 11.36 65.4431 11.36C64.0298 11.36 62.7898 11.6667 61.7231 12.28C60.6565 12.8667 59.8298 13.7333 59.2431 14.88C58.6831 16 58.4031 17.36 58.4031 18.96V30H55.5631V9H58.2831V14.68L57.8431 13.68C58.4831 12.16 59.5098 10.9733 60.9231 10.12C62.3631 9.24 64.0565 8.8 66.0031 8.8C68.0565 8.8 69.8031 9.32 71.2431 10.36C72.6831 11.3733 73.6165 12.9067 74.0431 14.96L72.9231 14.52C73.5365 12.8133 74.6165 11.44 76.1631 10.4C77.7365 9.33333 79.6165 8.8 81.8031 8.8ZM98.185 30V9H101.025V30H98.185ZM99.625 4.36C99.0383 4.36 98.545 4.16 98.145 3.76C97.745 3.36 97.545 2.88 97.545 2.32C97.545 1.76 97.745 1.29333 98.145 0.919998C98.545 0.519998 99.0383 0.319998 99.625 0.319998C100.212 0.319998 100.705 0.506665 101.105 0.879998C101.505 1.25333 101.705 1.72 101.705 2.28C101.705 2.86667 101.505 3.36 101.105 3.76C100.732 4.16 100.238 4.36 99.625 4.36ZM114.767 30.2C113.034 30.2 111.394 29.96 109.847 29.48C108.301 28.9733 107.087 28.3467 106.207 27.6L107.487 25.36C108.341 26 109.434 26.56 110.767 27.04C112.101 27.4933 113.501 27.72 114.967 27.72C116.967 27.72 118.407 27.4133 119.287 26.8C120.167 26.16 120.607 25.32 120.607 24.28C120.607 23.5067 120.354 22.9067 119.847 22.48C119.367 22.0267 118.727 21.6933 117.927 21.48C117.127 21.24 116.234 21.04 115.247 20.88C114.261 20.72 113.274 20.5333 112.287 20.32C111.327 20.1067 110.447 19.8 109.647 19.4C108.847 18.9733 108.194 18.4 107.687 17.68C107.207 16.96 106.967 16 106.967 14.8C106.967 13.6533 107.287 12.6267 107.927 11.72C108.567 10.8133 109.501 10.1067 110.727 9.6C111.981 9.06667 113.501 8.8 115.287 8.8C116.647 8.8 118.007 8.98667 119.367 9.36C120.727 9.70667 121.847 10.1733 122.727 10.76L121.487 13.04C120.554 12.4 119.554 11.9467 118.487 11.68C117.421 11.3867 116.354 11.24 115.287 11.24C113.394 11.24 111.994 11.5733 111.087 12.24C110.207 12.88 109.767 13.7067 109.767 14.72C109.767 15.52 110.007 16.1467 110.487 16.6C110.994 17.0533 111.647 17.4133 112.447 17.68C113.274 17.92 114.167 18.12 115.127 18.28C116.114 18.44 117.087 18.64 118.047 18.88C119.034 19.0933 119.927 19.4 120.727 19.8C121.554 20.1733 122.207 20.72 122.687 21.44C123.194 22.1333 123.447 23.0533 123.447 24.2C123.447 25.4267 123.101 26.4933 122.407 27.4C121.741 28.28 120.754 28.9733 119.447 29.48C118.167 29.96 116.607 30.2 114.767 30.2ZM139.578 8.8C141.285 8.8 142.778 9.13333 144.058 9.8C145.365 10.44 146.378 11.4267 147.098 12.76C147.845 14.0933 148.218 15.7733 148.218 17.8V30H145.378V18.08C145.378 15.8667 144.818 14.2 143.698 13.08C142.605 11.9333 141.058 11.36 139.058 11.36C137.565 11.36 136.258 11.6667 135.138 12.28C134.045 12.8667 133.192 13.7333 132.578 14.88C131.992 16 131.698 17.36 131.698 18.96V30H128.858V0.319998H131.698V14.76L131.138 13.68C131.805 12.16 132.872 10.9733 134.338 10.12C135.805 9.24 137.552 8.8 139.578 8.8ZM169.25 30V25.36L169.13 24.6V16.84C169.13 15.0533 168.623 13.68 167.61 12.72C166.623 11.76 165.143 11.28 163.17 11.28C161.81 11.28 160.516 11.5067 159.29 11.96C158.063 12.4133 157.023 13.0133 156.17 13.76L154.89 11.64C155.956 10.7333 157.236 10.04 158.73 9.56C160.223 9.05333 161.796 8.8 163.45 8.8C166.17 8.8 168.263 9.48 169.73 10.84C171.223 12.1733 171.97 14.2133 171.97 16.96V30H169.25ZM162.01 30.2C160.436 30.2 159.063 29.9467 157.89 29.44C156.743 28.9067 155.863 28.1867 155.25 27.28C154.636 26.3467 154.33 25.28 154.33 24.08C154.33 22.9867 154.583 22 155.09 21.12C155.623 20.2133 156.476 19.4933 157.65 18.96C158.85 18.4 160.45 18.12 162.45 18.12H169.69V20.24H162.53C160.503 20.24 159.09 20.6 158.29 21.32C157.516 22.04 157.13 22.9333 157.13 24C157.13 25.2 157.596 26.16 158.53 26.88C159.463 27.6 160.77 27.96 162.45 27.96C164.05 27.96 165.423 27.6 166.57 26.88C167.743 26.1333 168.596 25.0667 169.13 23.68L169.77 25.64C169.236 27.0267 168.303 28.1333 166.97 28.96C165.663 29.7867 164.01 30.2 162.01 30.2Z" fill="white"/>
</svg>
