<svg width="97" height="97" viewBox="0 0 97 97" fill="none" xmlns="http://www.w3.org/2000/svg">
<path d="M94.0518 0H2.08273C1.5341 0.00913309 1.01032 0.230814 0.621848 0.618336C0.233376 1.00586 0.0104761 1.52899 0 2.0776V94.0518C0.0104761 94.6004 0.233376 95.1236 0.621848 95.5111C1.01032 95.8986 1.5341 96.1203 2.08273 96.1294H94.0518C94.6004 96.1203 95.1241 95.8986 95.5125 95.5111C95.901 95.1236 96.124 94.6004 96.1345 94.0518V2.0776C95.9716 0.957331 95.0142 0 94.0518 0ZM4.00235 19.9917H91.9742V26.0718H18.0618C17.5279 26.0982 17.0246 26.3289 16.6561 26.7161C16.2876 27.1033 16.082 27.6174 16.082 28.1519C16.082 28.6864 16.2876 29.2005 16.6561 29.5877C17.0246 29.9749 17.5279 30.2056 18.0618 30.2321H91.959V82.2126H4.00235V19.9917ZM91.9742 7.99976H51.9857C51.4375 8.00893 50.9143 8.23075 50.5267 8.61841C50.139 9.00606 49.9172 9.52921 49.9081 10.0774C49.9159 10.3407 49.9761 10.5997 50.0852 10.8395C50.1944 11.0792 50.3502 11.2947 50.5437 11.4735C50.7372 11.6523 50.9643 11.7907 51.2119 11.8806C51.4595 11.9705 51.7226 12.0101 51.9857 11.9971H91.9742V15.9944H31.9939V3.99735H91.9742V7.99976ZM27.9915 3.99735V15.9944H4.00235V3.99735H27.9915ZM4.00235 91.959V85.8942H91.9742V91.959H4.00235Z" fill="#DC3635"/>
<path d="M11.9971 29.9112C12.2708 29.9252 12.544 29.8744 12.7944 29.7629C13.0448 29.6514 13.2653 29.4824 13.4381 29.2696C13.809 28.8778 14.0353 28.3713 14.0797 27.8336C14.0937 27.5599 14.043 27.2867 13.9315 27.0362C13.82 26.7858 13.6509 26.5653 13.4381 26.3925C13.045 26.0206 12.5366 25.7942 11.9971 25.7509C11.7241 25.7369 11.4515 25.7877 11.2019 25.8992C10.9524 26.0108 10.7328 26.1798 10.5611 26.3925C10.1891 26.7857 9.96274 27.2941 9.91946 27.8336C9.9488 28.3751 10.1771 28.8867 10.5606 29.2701C10.944 29.6536 11.4556 29.8819 11.9971 29.9112Z" fill="#DC3635"/>
<path d="M44.6274 11.3554C45.0191 11.7319 45.5274 11.9636 46.0685 12.0123C46.3422 12.0259 46.6153 11.9749 46.8656 11.8635C47.116 11.752 47.3366 11.5832 47.5096 11.3707C47.878 10.9757 48.1023 10.4679 48.1461 9.92961C48.1608 9.65702 48.1107 9.38486 48.0001 9.1353C47.8894 8.88574 47.7214 8.66588 47.5096 8.49365C47.1158 8.12273 46.6077 7.89651 46.0685 7.85204C45.7948 7.83844 45.5217 7.88942 45.2714 8.00088C45.021 8.11234 44.8004 8.28115 44.6274 8.49365C44.2565 8.88546 44.0302 9.39193 43.9858 9.92961C43.9582 10.2027 44.0029 10.4782 44.1156 10.7285C44.2282 10.9788 44.4047 11.195 44.6274 11.3554Z" fill="#DC3635"/>
<path d="M34.0715 59.023C35.4604 57.6056 36.3999 55.8098 36.7722 53.8606C37.1445 51.9114 36.933 49.8957 36.1643 48.0663C35.3956 46.2368 34.1039 44.675 32.4511 43.5767C30.7984 42.4785 28.8582 41.8926 26.8738 41.8926C24.8894 41.8926 22.9492 42.4785 21.2964 43.5767C19.6437 44.675 18.3519 46.2368 17.5832 48.0663C16.8145 49.8957 16.6031 51.9114 16.9754 53.8606C17.3477 55.8098 18.2872 57.6056 19.676 59.023C12.8016 61.569 7.67905 68.1379 7.67905 75.9747C7.68948 76.5238 7.91218 77.0475 8.30052 77.4358C8.68886 77.8242 9.21256 78.047 9.76165 78.0574H43.9859C44.535 78.047 45.0587 77.8242 45.447 77.4358C45.8354 77.0475 46.0582 76.5238 46.0686 75.9747V75.8168C45.978 72.1387 44.7863 68.5724 42.6476 65.5786C40.5089 62.5848 37.5215 60.3012 34.0715 59.023ZM27.0343 46.0635C28.2368 46.0635 29.4122 46.4201 30.412 47.0882C31.4119 47.7562 32.1912 48.7058 32.6514 49.8168C33.1116 50.9278 33.232 52.1503 32.9974 53.3297C32.7628 54.5091 32.1837 55.5924 31.3334 56.4427C30.4831 57.293 29.3998 57.8721 28.2204 58.1067C27.041 58.3413 25.8185 58.2209 24.7075 57.7607C23.5965 57.3005 22.6469 56.5212 21.9788 55.5214C21.3107 54.5215 20.9542 53.346 20.9542 52.1435C20.9535 51.3449 21.1103 50.5539 21.4156 49.816C21.721 49.078 22.1688 48.4075 22.7336 47.8428C23.2983 47.2781 23.9688 46.8302 24.7068 46.5249C25.4447 46.2196 26.2356 46.0628 27.0343 46.0635ZM12.16 74.0702C12.6667 70.7403 14.3475 67.7013 16.8987 65.5021C19.45 63.3029 22.7035 62.0885 26.0718 62.0783H27.9915C31.3604 62.0884 34.6146 63.3026 37.1667 65.5017C39.7188 67.7008 41.4006 70.7399 41.9084 74.0702H12.16Z" fill="#DC3635"/>
<path d="M86.0571 43.9859H51.9856C51.4375 43.995 50.9143 44.2169 50.5266 44.6045C50.139 44.9922 49.9172 45.5153 49.908 46.0635V58.0606C49.9171 58.6092 50.1387 59.1329 50.5262 59.5213C50.9138 59.9098 51.437 60.1328 51.9856 60.1432H86.0571C86.6057 60.1328 87.1288 59.9098 87.5163 59.5213C87.9039 59.1329 88.1256 58.6092 88.1347 58.0606V46.0635C87.9718 44.9432 87.0144 43.9859 86.0571 43.9859ZM83.9743 55.9829H54.0682V47.9832H83.9743V55.9829Z" fill="#DC3635"/>
<path d="M86.0571 62.0629H51.9856C51.4375 62.0721 50.9143 62.294 50.5266 62.6816C50.139 63.0693 49.9172 63.5924 49.908 64.1405V75.9747C49.9171 76.5233 50.1387 77.047 50.5262 77.4354C50.9138 77.8239 51.437 78.0469 51.9856 78.0574H86.0571C86.6057 78.0469 87.1288 77.8239 87.5163 77.4354C87.9039 77.047 88.1256 76.5233 88.1347 75.9747V63.9776C88.0664 63.4661 87.8212 62.9946 87.4418 62.6449C87.0623 62.2952 86.5724 62.0893 86.0571 62.0629ZM83.9743 74.0549H54.0682V66.0603H83.9743V74.0549Z" fill="#DC3635"/>
<path d="M11.997 7.9946H7.9996V11.9919H11.997V7.9946Z" fill="#DC3635"/>
<path d="M59.9806 67.98H55.9833V71.9773H59.9806V67.98Z" fill="#DC3635"/>
<path d="M66.0603 67.98H62.0631V71.9773H66.0603V67.98Z" fill="#DC3635"/>
<path d="M71.9775 67.98H67.9802V71.9773H71.9775V67.98Z" fill="#DC3635"/>
<path d="M59.9806 50.0659H55.9833V54.0633H59.9806V50.0659Z" fill="#DC3635"/>
<path d="M66.0603 50.0659H62.0631V54.0633H66.0603V50.0659Z" fill="#DC3635"/>
<path d="M71.9775 50.0659H67.9802V54.0633H71.9775V50.0659Z" fill="#DC3635"/>
<path d="M18.0773 7.9946H14.08V11.9919H18.0773V7.9946Z" fill="#DC3635"/>
<path d="M23.9942 7.9946H19.9968V11.9919H23.9942V7.9946Z" fill="#DC3635"/>
</svg>
